<svg width="86" height="86" viewBox="0 0 86 86" fill="none" xmlns="http://www.w3.org/2000/svg">
<path d="M64.411 52.1896C64.411 52.1896 62.8069 59.0516 62.8069 68.8549V69.9559C62.7978 71.3182 63.0848 72.6662 63.6482 73.9066C64.2116 75.1469 65.0379 76.25 66.0698 77.1394C66.1449 77.2032 66.2218 77.2668 66.3005 77.3304C66.518 77.5079 66.6932 77.7317 66.8133 77.9855C66.9334 78.2393 66.9953 78.5167 66.9946 78.7975C66.9946 79.3017 66.7943 79.7853 66.4378 80.1418C66.0812 80.4984 65.5977 80.6988 65.0935 80.6988H63.7238C63.1156 80.6983 62.5171 80.5467 61.9819 80.2578C61.4467 79.969 60.9916 79.5517 60.6574 79.0436C60.5767 78.9214 60.4879 78.7929 60.3931 78.6584C58.4191 75.8499 57.3631 72.4993 57.3699 69.0666V57.0013L64.411 52.1896Z" fill="#B8CCD1"/>
<path d="M35.8289 51.9131C34.8643 56.1698 33.3279 60.2762 31.2615 64.1206C30.821 64.9401 30.1681 65.6259 29.3713 66.1062C27.4975 67.2272 23.7813 70.1532 23.1074 75.9942C23.1074 75.9942 23.0526 76.7054 23.7803 77.5234C24.0728 77.8425 24.2376 78.2582 24.2431 78.691V78.9963C24.2431 79.4483 24.0636 79.8818 23.744 80.2015C23.4243 80.5211 22.9908 80.7006 22.5388 80.7006H20.3448C19.6292 80.7011 18.9403 80.429 18.418 79.9399C17.8958 79.4507 17.5793 78.7811 17.5329 78.067C17.4099 76.1297 17.1532 74.3647 18.4647 71.4263C18.9066 70.4575 19.4656 69.5464 20.1291 68.7135C21.4309 67.0532 24.0228 62.9358 21.7436 58.7281L26.4341 48.7327L35.8289 51.9131Z" fill="#B8CCD1"/>
<path d="M66.5576 10.1192C66.5576 10.1192 67.774 8.34858 70.3049 6.78869C70.5571 6.63358 70.8478 6.55247 71.1438 6.55461C71.4398 6.55674 71.7293 6.64204 71.9792 6.80077C72.2291 6.9595 72.4294 7.18527 72.5571 7.45232C72.6849 7.71938 72.735 8.01697 72.7018 8.31114L72.1089 13.547C72.1089 13.547 67.4181 12.6349 66.5576 10.1192Z" fill="#DB5E26"/>
<path d="M81.7069 20.5194L80.4458 17.6576C79.4002 17.1649 78.4038 16.5741 77.4699 15.8931C77.5331 15.8726 77.5964 15.8544 77.6586 15.8293C76.6628 15.2152 75.6857 14.5499 74.8631 13.9454C74.6195 13.7562 74.3871 13.5759 74.1705 13.4087C73.9649 13.2503 73.7749 13.0991 73.6037 12.9582C72.2619 11.84 70.659 11.0792 68.9443 10.7467C68.4543 10.6513 67.9595 10.5827 67.462 10.5413C67.104 9.02724 66.5296 7.57264 65.7567 6.22236C65.5998 5.94683 65.3776 5.71406 65.1097 5.54449C64.8418 5.37493 64.5363 5.27376 64.2202 5.24988C63.904 5.226 63.5868 5.28015 63.2964 5.40755C63.0061 5.53495 62.7515 5.73171 62.555 5.98055C61.5392 7.285 60.6386 8.67525 59.8634 10.1356C59.5414 10.7397 59.1191 11.2846 58.6144 11.7471C49.4579 20.1058 45.81 27.5827 45.81 27.5827C44.5496 27.4335 43.0064 27.884 42.0273 28.2424C41.1443 28.5661 40.2332 28.8072 39.3056 28.9628C31.8795 30.2022 26.8726 29.307 26.8726 29.307C27.5623 26.4341 27.5313 23.4353 26.7823 20.5773C26.0825 17.778 24.403 15.322 22.0482 13.6545C21.9288 13.5724 21.8093 13.4931 21.6896 13.4165C17.2783 10.6036 10.5854 11.4964 6.80143 15.1092C4.85031 16.991 3.53397 19.434 3.03539 22.0985C2.72139 23.5713 2.74421 25.0961 3.10217 26.5588C4.24748 31.0025 7.94751 32.6471 10.0004 33.2276C10.4725 33.3595 10.8789 33.662 11.1406 34.0765C11.4024 34.491 11.5008 34.988 11.4168 35.471C11.3534 35.819 11.2579 36.1604 11.1315 36.4908C10.7114 37.5415 9.96688 38.4307 9.00632 39.0288C7.16794 40.2177 6.36865 41.6341 6.02667 42.5369C5.989 42.6333 5.97682 42.7377 5.99131 42.8402C6.00579 42.9426 6.04645 43.0396 6.10936 43.1218C6.17226 43.2039 6.2553 43.2685 6.35043 43.3092C6.44556 43.3499 6.54958 43.3654 6.65245 43.3541L7.20032 43.2947C7.25222 43.2894 7.30445 43.3006 7.34961 43.3268C7.39476 43.3529 7.43054 43.3926 7.45185 43.4402C7.47317 43.4878 7.47893 43.5409 7.46833 43.592C7.45773 43.6431 7.43131 43.6895 7.39281 43.7247C6.63976 44.4198 6.06404 45.2851 5.71378 46.2483C5.67206 46.3596 5.66601 46.4812 5.69646 46.5962C5.72691 46.7111 5.79236 46.8137 5.88374 46.8898C5.97512 46.9659 6.0879 47.0117 6.20646 47.0209C6.32502 47.03 6.44349 47.002 6.54545 46.9408L6.62336 46.8938C6.65926 46.8722 6.70022 46.8606 6.74208 46.86C6.78394 46.8595 6.82521 46.87 6.86167 46.8906C6.89814 46.9111 6.92851 46.941 6.9497 46.9771C6.97088 47.0132 6.98213 47.0543 6.98228 47.0961C7.0134 48.9593 8.13013 50.698 8.13013 50.698C8.81 51.5895 9.36777 52.5677 9.78867 53.6068C10.8454 56.1313 11.384 58.8424 11.3723 61.579L11.3736 62.2982C11.2218 64.518 9.7482 66.3103 8.7076 67.3122C8.0288 67.9656 7.59342 68.8312 7.4735 69.7657L7.07739 72.8491C7.43884 76.6478 11.5011 78.5947 12.1473 76.0969C12.0588 75.4847 12.0803 74.8616 12.2111 74.257C12.8088 71.4364 14.3105 69.0489 15.3771 67.6299C15.9221 66.9028 16.5556 66.2466 17.2631 65.6764C17.6086 65.3982 17.8914 65.0863 18.1873 64.8228C20.3879 62.8612 21.0387 60.9927 21.0387 60.9927C23.1381 56.6366 25.2049 53.8031 26.6437 52.2157C27.6607 51.0931 29.5952 51.1381 31.014 51.6686C33.3057 52.5566 35.4763 53.7303 37.4743 55.1617C42.6386 58.78 47.7961 58.2878 47.7961 58.2878L48.3751 67.0719C48.4388 68.6045 48.5145 70.1135 48.5835 71.3954C49.3737 76.0374 55.1385 80.0713 54.8861 75.9077L54.7267 75.6406C54.1878 74.6749 53.9252 73.5795 53.9679 72.4745C54.2438 64.9075 56.9867 59.9648 56.9867 59.9648C57.6513 59.2662 58.3582 58.609 59.1033 57.9971L63.2331 54.3986C64.4633 53.6091 65.479 52.5275 66.1897 51.2502C67.6786 48.2587 68.8747 43.4427 69.3118 37.5026C69.7797 34.012 70.9731 31.6849 71.4742 30.2417C71.8817 29.0929 72.7259 28.1513 73.8235 27.6212C75.9935 26.5568 77.9447 25.3773 79.0905 24.94C79.5516 24.782 79.9765 24.5336 80.3404 24.2094C80.7043 23.8852 80.9999 23.4916 81.2099 23.0518C81.7464 21.9578 81.7069 20.5194 81.7069 20.5194Z" fill="#F99848"/>
<path d="M74.2203 13.4623C72.7973 13.0144 70.6286 12.6658 68.364 13.5478C66.6792 14.1716 65.1656 15.1845 63.9464 16.5039C63.0045 17.6058 61.7931 18.4448 60.4305 18.9393C59.8104 19.1527 59.1653 19.2847 58.5112 19.3321C58.4239 19.3384 58.3398 19.3672 58.267 19.4157C58.1942 19.4643 58.1352 19.5309 58.0958 19.609C58.0565 19.6871 58.038 19.7741 58.0423 19.8615C58.0466 19.9489 58.0735 20.0337 58.1204 20.1076C58.4268 20.5714 58.8268 20.966 59.2945 21.2663C59.3568 21.3082 59.4088 21.3634 59.4469 21.428C59.4851 21.4926 59.5082 21.5649 59.5148 21.6396C59.5214 21.7143 59.5112 21.7896 59.4849 21.8598C59.4587 21.93 59.417 21.9935 59.3631 22.0456C59.2522 22.1517 59.1489 22.2655 59.054 22.3861C55.7625 26.5619 59.4534 30.7266 60.5514 31.8026C60.6399 31.8881 60.6939 32.0031 60.7032 32.1258C60.7126 32.2485 60.6765 32.3704 60.602 32.4683C60.1568 33.0438 58.9493 34.0603 55.9026 34.2685C55.7133 34.2806 55.5353 34.3624 55.4028 34.4981C55.2703 34.6338 55.1928 34.8138 55.1853 35.0033C55.1412 36.3874 55.5394 37.7496 56.322 38.892C56.6694 39.3942 56.8499 39.993 56.838 40.6035C56.8261 41.214 56.6224 41.8053 56.2557 42.2936C56.1641 42.4104 56.0664 42.5224 55.9631 42.629C55.2623 43.3347 54.7251 44.1856 54.3893 45.1217C53.3702 48.0857 52.4517 53.9999 59.0793 58.026C60.455 56.8982 61.9004 55.8582 63.4069 54.9121C69.9353 50.6404 69.8546 37.5838 69.8546 37.5838C70.3251 34.1198 70.9771 31.7677 71.4856 30.3226C71.8896 29.1686 72.7324 28.2205 73.8311 27.6839C76.0107 26.6216 78.0253 25.814 79.175 25.3769C80.1534 25.0174 80.9595 24.3008 81.4312 23.3713C81.7889 22.5413 82.0161 21.6611 82.1048 20.7617L80.6205 17.4295C78.5917 16.5404 75.8905 14.7546 74.2203 13.4623Z" fill="#E7EEF2"/>
<path d="M79.7458 17.0133C80.58 17.2743 81.3738 17.6498 82.1047 18.129C82.9394 18.7265 83.0032 19.2152 83.1466 19.8237C83.1985 20.0591 83.19 20.3037 83.1219 20.5348C83.0537 20.766 82.9281 20.9761 82.7568 21.1456C82.4692 21.4252 82.0917 21.5939 81.6915 21.6217C81.2913 21.6495 80.8942 21.5346 80.5707 21.2974C79.6512 20.6119 78.7829 19.2663 79.7458 17.0133Z" fill="#373D4C"/>
<path d="M23.41 50.2697C22.4172 51.3842 21.3531 53.2762 20.8379 56.4577C20.385 59.365 19.4909 62.1862 18.1865 64.8237C20.3909 62.8662 21.2529 61.3599 21.2529 61.3599C23.3584 57.0093 25.518 54.2057 26.9595 52.6198C27.4587 52.0721 28.1108 51.6869 28.8314 51.5141C29.5519 51.3414 30.3078 51.389 31.001 51.6508L27.2142 49.602C26.5976 49.2684 25.8865 49.1528 25.196 49.274C24.5055 49.3952 23.8761 49.7461 23.41 50.2697Z" fill="#E7EEF2"/>
<path d="M45.5329 53.2269C45.5314 54.6957 45.4874 56.5601 45.3232 58.2C46.1338 58.312 46.9533 58.3445 47.7702 58.2971C47.7358 56.4815 47.3615 54.6884 46.6666 53.0106C46.6162 52.8836 46.5231 52.7782 46.4033 52.7124C46.2836 52.6467 46.1446 52.6247 46.0104 52.6503C45.8762 52.6759 45.7551 52.7475 45.668 52.8527C45.5808 52.9579 45.5331 53.0903 45.5329 53.2269Z" fill="#DB5E26"/>
<path d="M71.3799 17.0363C71.2973 17.0364 71.2153 17.0229 71.1371 16.9963C70.9475 16.9366 70.7505 16.9029 70.5518 16.8964C70.3505 16.8964 70.1575 16.8165 70.0152 16.6742C69.8729 16.5319 69.793 16.3389 69.793 16.1376C69.793 15.9364 69.8729 15.7433 70.0152 15.601C70.1575 15.4587 70.3505 15.3788 70.5518 15.3788C70.9157 15.3851 71.2767 15.4456 71.6227 15.5584C71.7933 15.6158 71.938 15.7321 72.0307 15.8864C72.1235 16.0406 72.1585 16.2229 72.1293 16.4005C72.1001 16.5782 72.0087 16.7396 71.8714 16.8561C71.7342 16.9726 71.5599 17.0364 71.3799 17.0363Z" fill="#373D4C"/>
<path d="M26.8954 29.2823C25.7066 32.3429 23.6578 33.7141 21.9555 34.3242C21.6754 34.424 21.3746 34.4515 21.0811 34.4039C20.7876 34.3563 20.5109 34.2353 20.2767 34.0521C20.0425 33.8689 19.8585 33.6294 19.7417 33.3559C19.6249 33.0825 19.5791 32.7839 19.6087 32.4881C19.702 31.2949 19.633 30.0947 19.4036 28.9201L17.8353 27.8635L17.7359 27.0526H12.8241L11.3972 30.1385L10.6956 32.0568C11.2209 32.3427 11.8007 32.5141 12.397 32.5598C12.9933 32.6055 13.5926 32.5244 14.1553 32.3219C14.6924 32.1096 15.1397 31.7181 15.4213 31.2137C15.5535 30.9835 15.7529 30.7992 15.9928 30.6855C16.2328 30.5718 16.5017 30.534 16.7636 30.5773C16.9616 30.6008 17.1518 30.6684 17.3202 30.7751C17.4886 30.8818 17.6309 31.025 17.7367 31.194C18.1877 32.0578 17.9719 32.8202 17.8943 33.6475C17.7078 35.6296 19.6494 36.5437 21.6413 36.1957C24.3283 35.7257 26.9392 33.5651 28.1766 29.4439C27.3474 29.3632 26.8954 29.2823 26.8954 29.2823Z" fill="#DB5E26"/>
<path d="M26.8954 29.2816C26.8999 29.2631 26.9032 29.2451 26.9077 29.2266C26.9003 29.2334 26.8952 29.2424 26.893 29.2522C26.8909 29.262 26.8917 29.2722 26.8954 29.2816Z" fill="#DB5E26"/>
<path d="M9.7901 31.2959C9.23362 30.5083 8.92428 29.2451 9.62771 27.2522C9.62771 27.2522 11.0242 23.7616 15.0394 24.4589C15.0394 24.4589 18.618 25.0888 19.4036 28.9201C19.4036 28.9201 17.0601 27.4543 14.5429 28.374C14.0981 28.5324 13.7173 28.8318 13.4582 29.2264C13.1991 29.6211 13.076 30.0896 13.1074 30.5606C13.1196 30.7124 13.1777 30.8667 13.1879 31.0352C13.192 31.1757 13.1635 31.3153 13.1046 31.4429C12.983 31.7102 12.7842 31.935 12.5337 32.0882C12.2833 32.2415 11.9926 32.3163 11.6993 32.3029C11.3248 32.2946 10.9573 32.1993 10.626 32.0246C10.2946 31.8498 10.0084 31.6003 9.7901 31.2959Z" fill="#E7EEF2"/>
<path d="M61.6341 23.5951C62.4864 23.924 63.3963 24.0777 64.3094 24.0471C64.3426 24.0448 64.3759 24.0515 64.4056 24.0664C64.4354 24.0813 64.4606 24.1039 64.4787 24.1319C64.4968 24.1599 64.507 24.1921 64.5084 24.2254C64.5098 24.2587 64.5022 24.2917 64.4865 24.321C63.9096 25.4007 62.9507 26.2263 61.7972 26.6362C61.762 26.6481 61.7312 26.6702 61.7086 26.6997C61.686 26.7292 61.6728 26.7648 61.6704 26.8019C61.6681 26.839 61.6769 26.8759 61.6957 26.908C61.7144 26.94 61.7423 26.9658 61.7757 26.982C62.3724 27.2602 63.6283 27.6439 65.3943 27.1413C65.4268 27.1314 65.4614 27.1303 65.4944 27.1383C65.5274 27.1464 65.5577 27.1631 65.5819 27.1869C65.6062 27.2107 65.6237 27.2406 65.6324 27.2734C65.6411 27.3062 65.6408 27.3408 65.6316 27.3735C65.5078 27.7852 65.3316 28.1793 65.1075 28.5462C65.0844 28.5826 65.0746 28.6258 65.0796 28.6686C65.0846 28.7114 65.1042 28.7512 65.135 28.7813C65.1659 28.8115 65.2061 28.8301 65.249 28.8341C65.2919 28.8381 65.3349 28.8273 65.3708 28.8034C66.4375 28.0657 67.2058 26.9714 67.5372 25.7175C67.5457 25.6846 67.5451 25.65 67.5355 25.6174C67.5259 25.5847 67.5076 25.5554 67.4825 25.5323C67.4575 25.5093 67.4267 25.4935 67.3933 25.4867C67.36 25.4798 67.3255 25.4822 67.2934 25.4934C66.6583 25.7183 66.0036 25.8836 65.3379 25.9872C65.2997 25.9925 65.2608 25.9859 65.2265 25.9684C65.1921 25.9509 65.164 25.9233 65.1459 25.8893C65.1278 25.8552 65.1205 25.8165 65.1251 25.7782C65.1297 25.7399 65.146 25.704 65.1717 25.6753C65.8749 24.9101 66.3652 23.974 66.5938 22.9602C66.5995 22.9301 66.5978 22.8991 66.5888 22.8699C66.5799 22.8406 66.5639 22.8139 66.5423 22.7922C66.5208 22.7705 66.4942 22.7544 66.465 22.7452C66.4358 22.736 66.4048 22.7341 66.3747 22.7397C64.8289 23.0237 63.2634 23.1866 61.6923 23.2268C61.6477 23.2275 61.6048 23.2439 61.5711 23.2731C61.5374 23.3023 61.5151 23.3424 61.5082 23.3865C61.5012 23.4305 61.51 23.4756 61.5331 23.5138C61.5561 23.5519 61.5919 23.5807 61.6341 23.5951Z" fill="#B8CCD1"/>
<path d="M9.52315 80.7545L11.5775 80.751C11.9627 80.7506 12.3363 80.6189 12.6365 80.3776C12.9367 80.1362 13.1456 79.7997 13.2287 79.4236C13.2825 79.1919 13.2856 78.9513 13.2379 78.7184C13.1901 78.4854 13.0926 78.2655 12.952 78.0736C12.7329 77.7775 12.5543 77.4535 12.4208 77.1102C12.2922 76.7844 12.2016 76.4449 12.1507 76.0984C11.4986 76.5223 10.7221 76.6114 9.82364 76.0225C8.63096 75.2406 7.67988 74.1417 7.07721 72.8491L6.64088 76.2499C6.54334 77.3037 6.73622 78.3641 7.19862 79.3161C7.41297 79.7491 7.74437 80.1134 8.15524 80.3676C8.5661 80.6219 9.03998 80.7559 9.52315 80.7545Z" fill="#E7EEF2"/>
<path d="M56.7824 78.0938C56.0374 77.471 55.3969 76.7331 54.8853 75.9079C54.8297 75.8198 54.7798 75.7293 54.7292 75.6387C53.9803 76.4099 53.0186 76.7848 51.8538 76.0212C50.2253 74.9406 49.0588 73.2911 48.5828 71.3956C48.6422 72.4982 48.6968 73.4348 48.7345 74.071C48.7785 74.8095 48.954 75.5343 49.2528 76.2111C49.764 77.3454 50.43 78.4033 51.2318 79.3547C51.5832 79.772 52.022 80.107 52.5172 80.3359C53.0124 80.5648 53.5518 80.6821 54.0974 80.6793L55.9054 80.6763C56.0942 80.676 56.2811 80.6385 56.4554 80.566C56.6296 80.4934 56.7879 80.3873 56.9212 80.2536C57.0544 80.1198 57.16 79.9612 57.232 79.7866C57.3039 79.6121 57.3407 79.4251 57.3403 79.2363V79.2297C57.3378 79.0108 57.2864 78.7952 57.1898 78.5986C57.0933 78.4021 56.9541 78.2296 56.7824 78.0938Z" fill="#E7EEF2"/>
<path d="M63.7664 10.9777C64.3603 10.8481 64.9602 10.7485 65.5641 10.6792C65.6275 10.6728 65.6887 10.6526 65.7434 10.6201C65.7982 10.5876 65.8452 10.5435 65.8812 10.4909C65.9171 10.4383 65.9411 10.3785 65.9515 10.3156C65.962 10.2528 65.9585 10.1884 65.9415 10.1271C65.6667 9.09723 65.3045 8.09277 64.8586 7.12465C64.8237 7.0546 64.7708 6.9951 64.7053 6.95225C64.6397 6.9094 64.564 6.88475 64.4858 6.88081C64.4077 6.87687 64.3298 6.89379 64.2604 6.92984C64.1909 6.96589 64.1322 7.01977 64.0904 7.08595C63.7206 7.65659 63.2608 8.73766 63.2714 10.5788C63.2718 10.6397 63.2858 10.6996 63.3122 10.7544C63.3387 10.8092 63.377 10.8574 63.4243 10.8956C63.4717 10.9338 63.527 10.961 63.5862 10.9752C63.6453 10.9894 63.7069 10.9902 63.7664 10.9777Z" fill="#DB5E26"/>
</svg>
