<svg width="15" height="18" viewBox="0 0 15 18" fill="none" xmlns="http://www.w3.org/2000/svg">
<path fill-rule="evenodd" clip-rule="evenodd" d="M6.70238 2.25C6.53615 2.25 6.3827 2.33919 6.30042 2.48362L2.95444 8.35685C2.51091 9.13539 2.32478 10.0342 2.42265 10.9249L2.7758 14.1385C2.83863 14.7103 3.2875 15.1632 3.8587 15.2312L5.97575 15.483C7.37331 15.6493 8.79034 15.5051 10.1258 15.0609C10.7854 14.8416 11.3136 14.341 11.5681 13.6942L13.2722 9.36363C13.3139 9.25775 13.3427 9.14725 13.358 9.03451C13.4872 8.0824 12.6538 7.27924 11.7071 7.44367L8.29129 8.03694C7.21229 8.22434 6.28038 7.27216 6.49096 6.19744L7.15637 2.80158C7.21236 2.51581 6.99358 2.25 6.70238 2.25ZM4.99708 1.74111C5.34617 1.12836 5.99716 0.750006 6.70237 0.75C7.93775 0.749989 8.86593 1.87768 8.62838 3.09001L7.96297 6.48587C7.96012 6.50042 7.96165 6.50931 7.96365 6.51569C7.96612 6.52355 7.97119 6.53276 7.97954 6.5413C7.9879 6.54984 7.997 6.5551 8.0048 6.55774C8.01114 6.55988 8.01999 6.5616 8.0346 6.55906L11.4504 5.96579C13.3966 5.62777 15.1101 7.27891 14.8444 9.23627C14.8129 9.46806 14.7537 9.69522 14.6681 9.91289L12.964 14.2435C12.5467 15.3039 11.6806 16.1246 10.5992 16.4843C9.0544 16.9981 7.41522 17.1648 5.79856 16.9725L3.68151 16.7207C2.4173 16.5703 1.42383 15.5679 1.28477 14.3024L0.931628 11.0887C0.799213 9.88369 1.05103 8.66766 1.65111 7.61434L4.99708 1.74111Z" fill="#0EB553"/>
</svg>
