<svg width="62" height="84" viewBox="0 0 62 84" fill="none" xmlns="http://www.w3.org/2000/svg">
<path d="M43.0938 31.25L52.5 8.40625L43.0938 0.34375L40.5715 2.35937C37.8551 4.53369 34.4794 5.71847 31 5.71875C27.5206 5.71847 24.1449 4.53369 21.4285 2.35937L18.9062 0.34375L9.5 8.40625L18.9062 31.25V35.2812C15.8479 49.8918 9.33337 65.1676 0.09375 80.9687C20.5421 84.5519 41.4579 84.5519 61.9062 80.9687C52.6666 65.1676 46.1521 49.8918 43.0938 35.2812V31.25Z" fill="#F2A7B1"/>
<path d="M4.125 80.9688C13.3646 65.1676 19.8791 49.8918 22.9375 35.2812V31.25L15.0094 12.0021C14.5795 10.9554 14.491 9.79969 14.7564 8.6997C15.0218 7.59971 15.6276 6.61153 16.4875 5.87597L20.9958 2.01134L18.9062 0.34375L9.5 8.40625L18.9062 31.25V35.2812C15.8479 49.8918 9.33337 65.1676 0.09375 80.9688C10.9582 82.8652 21.9741 83.7577 33.0022 83.6348C23.3205 83.5233 13.6635 82.6318 4.125 80.9688Z" fill="#E8859B"/>
<path d="M43.0938 31.25H18.9062V35.2812H43.0938V31.25Z" fill="#ED5D5D"/>
<path d="M25.625 46.0312H21.5938L26.9688 35.2812H31L25.625 46.0312Z" fill="#ED5D5D"/>
<path d="M36.375 46.0312H40.4062L35.0312 35.2812H31L36.375 46.0312Z" fill="#ED5D5D"/>
<path d="M31 35.2812L26.2512 36.0727C25.8435 36.1406 25.4259 36.1189 25.0275 36.0091C24.629 35.8993 24.2593 35.704 23.9439 35.4369C23.6286 35.1698 23.3752 34.8371 23.2014 34.4622C23.0276 34.0872 22.9375 33.6789 22.9375 33.2656C22.9375 32.8523 23.0276 32.444 23.2014 32.069C23.3752 31.694 23.6286 31.3614 23.9439 31.0943C24.2593 30.8271 24.629 30.6319 25.0275 30.5221C25.4259 30.4123 25.8435 30.3906 26.2512 30.4585L31 31.2499V35.2812Z" fill="#F97878"/>
<path d="M35.7488 36.0727L31 35.2812V31.2499L35.7488 30.4585C36.1565 30.3906 36.5741 30.4123 36.9725 30.5221C37.371 30.6319 37.7407 30.8271 38.0561 31.0943C38.3714 31.3614 38.6248 31.694 38.7986 32.069C38.9724 32.444 39.0625 32.8523 39.0625 33.2656C39.0625 33.6789 38.9724 34.0872 38.7986 34.4622C38.6248 34.8371 38.3714 35.1698 38.0561 35.4369C37.7407 35.704 37.371 35.8993 36.9725 36.0091C36.5741 36.1189 36.1565 36.1406 35.7488 36.0727Z" fill="#F97878"/>
</svg>
