<svg width="88" height="88" viewBox="0 0 88 88" fill="none" xmlns="http://www.w3.org/2000/svg">
<path d="M81.0678 62.7917C81.0678 63.9308 80.1444 64.8542 79.0053 64.8542H4.61206C3.47296 64.8542 2.54956 63.9308 2.54956 62.7917V12.5469C2.54956 11.4078 3.47296 10.4844 4.61206 10.4844H79.0053C80.1444 10.4844 81.0678 11.4078 81.0678 12.5469V62.7917Z" fill="#010101"/>
<path d="M54.9785 72.9924H28.5312V73.359H54.9785V72.9924Z" fill="#7F7F7F"/>
<path d="M32.8854 64.7969C32.8854 64.7969 32.7709 68.4635 32.112 71.2135C32.112 71.2135 31.8972 72.2161 31.3672 72.2591C31.3672 72.2591 29.1614 72.5312 28.4023 72.8177V73.0898H55.2005V72.832C55.2005 72.832 54.0976 72.4739 52.0208 72.2161C52.0208 72.2161 51.6913 72.2019 51.5481 71.6003C51.5481 71.6003 50.8105 67.9766 50.6387 64.8184L32.8854 64.7969Z" fill="#C8CCCF"/>
<path d="M32.9571 64.8184C32.9571 64.8184 32.781 66.6298 32.7295 67.155H50.8469C50.8469 67.155 50.6173 65.0977 50.6388 64.8184H32.9571Z" fill="#A5A8AD"/>
<path d="M31.3672 72.2591C31.3672 72.2591 31.7539 72.1511 31.9043 71.457H51.6482C51.6482 71.457 51.6843 72.043 52.0209 72.1665L31.3672 72.2591Z" fill="#A5A8AD"/>
<path d="M19.021 76.6276C19.021 76.6276 19.1929 76.814 19.6226 76.8282L63.1356 76.8425C63.1356 76.8425 63.4076 76.8137 63.7228 76.6276L19.021 76.6276Z" fill="#7F7F7F"/>
<path d="M20.9974 73.359H61.9036L63.9088 75.9401C63.9088 75.9401 64.2813 76.1407 63.1783 76.1407H19.9374C19.9374 76.1407 18.677 76.1693 18.8059 75.9975L20.9974 73.359Z" fill="#ACB1B7"/>
<path d="M18.8491 75.9973V76.5273C18.8491 76.5273 19.1785 76.6992 19.5652 76.6992L63.3934 76.7135C63.3934 76.7135 63.9442 76.6563 63.9696 76.4987V76.0564C63.9696 76.0564 63.7943 76.1156 63.3934 76.1424H19.5079C19.5079 76.1424 18.9207 76.1835 18.8491 75.9973Z" fill="#C8CCCF"/>
<path d="M78.2319 13.3777H5.44287V54.6563H78.2319V13.3777Z" fill="#524D61"/>
<path d="M81.0678 63.0604C81.0678 64.0827 80.1444 64.9115 79.0053 64.9115H4.61206C3.47296 64.9115 2.54956 64.0827 2.54956 63.0604V57.6355H81.0677L81.0678 63.0604Z" fill="#B8BBC0"/>
<path d="M41.8086 59.9723C41.8086 59.9723 41.794 59.2324 42.6035 59.1104C42.6035 59.1104 42.5752 60.0461 41.8086 59.9723Z" fill="black"/>
<path d="M43.3409 61.8175C42.9757 62.5986 42.6749 62.7413 42.6749 62.7413C42.4463 62.8779 42.1524 62.6553 42.1524 62.6553C42.0166 62.541 41.6583 62.627 41.6583 62.627C41.4366 62.8564 41.2286 62.7705 41.2286 62.7705C40.8273 62.6055 40.4766 61.7822 40.4766 61.7822C40.0899 60.665 40.713 60.2139 40.713 60.2139C41.3145 59.6905 41.8662 60.2139 41.8662 60.2139C42.7256 59.5977 43.2335 60.3565 43.2335 60.3565C42.919 60.5284 42.876 60.8653 42.876 60.8653C42.79 61.6456 43.3409 61.8175 43.3409 61.8175Z" fill="black"/>
<path d="M69.953 74.5508C69.953 74.5508 69.4804 74.3789 70.8124 73.5625C70.8124 73.5625 77.2577 70.8125 84.7772 74.25C84.7772 74.25 86.1952 75.2098 84.5194 75.9975C84.5194 75.9975 82.6001 77.1291 78.2316 76.3556C78.2316 76.3556 73.9491 75.8829 73.1757 75.7969C73.1757 75.7969 70.2538 75.7969 69.953 74.5508Z" fill="#DCE0E3"/>
<path d="M74.0781 73.359C74.0781 73.359 79.1914 72.1874 83.4023 73.5624C83.4023 73.5624 87.2552 74.8337 84.1758 75.9973C84.1758 75.9973 79.75 76.5702 77.2578 75.1522C77.2578 75.1522 74.9375 73.4134 74.0781 73.359Z" fill="#F7F8FA"/>
<path d="M69.9531 74.5508C69.9531 74.5508 72.1445 72.0156 76.8281 75.3242C76.8281 75.3242 80.3945 76.9285 84.5195 75.9974C84.5195 75.9974 83.2018 77.172 78.2317 76.3555C78.2317 76.3555 74.25 75.9258 72.5742 75.8398C72.5742 75.8398 70.3398 75.7539 69.9531 74.5508Z" fill="#717479"/>
</svg>
