<svg width="32" height="32" viewBox="0 0 32 32" fill="none" xmlns="http://www.w3.org/2000/svg">
<circle cx="16" cy="16" r="16" fill="#0F172A" fill-opacity="0.08"/>
<path fill-rule="evenodd" clip-rule="evenodd" d="M10.25 9.5C10.25 7.70507 11.7051 6.25 13.5 6.25C14.5052 6.25 15.4038 6.70637 16 7.42322C16.5962 6.70637 17.4948 6.25 18.5 6.25C20.2949 6.25 21.75 7.70507 21.75 9.5C21.75 10.1443 21.5625 10.7448 21.2391 11.25H22C23.5188 11.25 24.75 12.4812 24.75 14V16C24.75 16.8042 24.2076 17.4816 23.4687 17.6865C23.6128 19.5131 23.5293 21.3517 23.2195 23.1597C23.0345 24.2394 22.1576 25.0665 21.069 25.1881L20.1545 25.2903C17.3934 25.5989 14.6066 25.5989 11.8455 25.2903L10.931 25.1881C9.84239 25.0665 8.96552 24.2394 8.78052 23.1597C8.47069 21.3517 8.38724 19.5131 8.53131 17.6865C7.7924 17.4816 7.25 16.8042 7.25 16V14C7.25 12.4812 8.48122 11.25 10 11.25H10.7609C10.4375 10.7448 10.25 10.1443 10.25 9.5ZM15.25 9.5C15.25 8.5335 14.4665 7.75 13.5 7.75C12.5335 7.75 11.75 8.5335 11.75 9.5C11.75 10.4665 12.5335 11.25 13.5 11.25C14.4665 11.25 15.25 10.4665 15.25 9.5ZM18.5 11.25C19.4665 11.25 20.25 10.4665 20.25 9.5C20.25 8.5335 19.4665 7.75 18.5 7.75C17.5335 7.75 16.75 8.5335 16.75 9.5C16.75 10.4665 17.5335 11.25 18.5 11.25ZM8.75 14C8.75 13.3096 9.30964 12.75 10 12.75H15.25V16.25H9C8.86193 16.25 8.75 16.1381 8.75 16V14ZM16.75 17.75H21.969C22.1093 19.4706 22.0329 21.203 21.741 22.9064C21.6689 23.3274 21.3269 23.65 20.9024 23.6974L19.9879 23.7996C18.9116 23.9199 17.8312 23.9914 16.75 24.014V17.75ZM16.75 16.25H23C23.1381 16.25 23.25 16.1381 23.25 16V14C23.25 13.3096 22.6904 12.75 22 12.75H16.75V16.25ZM15.25 17.75V24.014C14.1688 23.9914 13.0884 23.9199 12.0121 23.7996L11.0976 23.6974C10.6731 23.65 10.3311 23.3274 10.259 22.9064C9.96708 21.203 9.89074 19.4706 10.031 17.75H15.25Z" fill="white"/>
</svg>
