<svg width="18" height="19" viewBox="0 0 18 19" fill="none" xmlns="http://www.w3.org/2000/svg">
<path fill-rule="evenodd" clip-rule="evenodd" d="M10.5578 2.5335C9.68719 1.69814 8.31269 1.69814 7.44212 2.5335L2.81568 6.97283C2.70233 7.0816 2.62608 7.22329 2.59774 7.37781C2.04361 10.3997 2.00271 13.4933 2.47675 16.5287L2.58927 17.2492H5.56573V11.0379C5.56573 10.6237 5.90152 10.2879 6.31573 10.2879H11.6842C12.0984 10.2879 12.4342 10.6237 12.4342 11.0379V17.2492H15.4106L15.5231 16.5287C15.9972 13.4933 15.9563 10.3997 15.4021 7.37781C15.3738 7.22329 15.2976 7.0816 15.1842 6.97283L10.5578 2.5335ZM6.40357 1.45118C7.85451 0.0589161 10.1454 0.0589161 11.5963 1.45118L16.2227 5.89051C16.5633 6.21731 16.7924 6.643 16.8775 7.10726C17.4621 10.2949 17.5052 13.5582 17.0052 16.7602L16.8244 17.9177C16.7496 18.3964 16.3374 18.7492 15.8529 18.7492H11.6842C11.2699 18.7492 10.9342 18.4135 10.9342 17.9992V11.7879H7.06573V17.9992C7.06573 18.4135 6.72994 18.7492 6.31573 18.7492H2.147C1.66252 18.7492 1.25023 18.3964 1.17548 17.9177L0.994715 16.7602C0.494667 13.5582 0.537814 10.2949 1.12234 7.10726C1.20748 6.643 1.43656 6.21731 1.77713 5.89051L6.40357 1.45118Z" fill="#0EB553"/>
</svg>
