<svg width="18" height="21" viewBox="0 0 18 21" fill="none" xmlns="http://www.w3.org/2000/svg">
<path fill-rule="evenodd" clip-rule="evenodd" d="M4.25003 8.99902C4.25003 6.37567 6.37667 4.24902 9.00002 4.24902C11.6234 4.24902 13.75 6.37567 13.75 8.99902C13.75 11.6224 11.6234 13.749 9.00002 13.749C6.37667 13.749 4.25003 11.6224 4.25003 8.99902ZM9.00002 5.74902C7.2051 5.74902 5.75003 7.2041 5.75003 8.99902C5.75003 10.7939 7.2051 12.249 9.00002 12.249C10.795 12.249 12.25 10.7939 12.25 8.99902C12.25 7.2041 10.795 5.74902 9.00002 5.74902Z" fill="#0EB553"/>
<path fill-rule="evenodd" clip-rule="evenodd" d="M0.524388 7.85588C0.878716 3.55726 4.47087 0.249023 8.78406 0.249023H9.216C13.5292 0.249023 17.1213 3.55726 17.4757 7.85588C17.666 10.165 16.9527 12.4579 15.4861 14.2516L10.693 20.1134C9.818 21.1835 8.18205 21.1835 7.30705 20.1134L2.51399 14.2516C1.04733 12.4579 0.334049 10.165 0.524388 7.85588ZM8.78406 1.74902C5.25152 1.74902 2.30952 4.4585 2.01932 7.9791C1.8609 9.90094 2.45455 11.8093 3.67521 13.3021L8.46827 19.1639C8.7431 19.5 9.25695 19.5 9.53178 19.1639L14.3248 13.3021C15.5455 11.8093 16.1391 9.90094 15.9807 7.9791C15.6905 4.4585 12.7485 1.74902 9.216 1.74902H8.78406Z" fill="#0EB553"/>
</svg>
