<svg width="32" height="32" viewBox="0 0 32 32" fill="none" xmlns="http://www.w3.org/2000/svg">
<circle cx="16" cy="16" r="16" fill="#0F172A" fill-opacity="0.08"/>
<path fill-rule="evenodd" clip-rule="evenodd" d="M5.62291 16.3415L7.89619 9.90532C7.9075 9.87332 7.92096 9.84211 7.93649 9.81193C8.31617 9.07411 8.99793 8.50861 9.72519 8.13231C10.458 7.75312 11.3089 7.52783 12.1111 7.52783C13.2594 7.52783 14.4009 7.98867 15.2581 8.71962C15.533 8.95398 15.7847 9.22181 16 9.51784C16.2153 9.22181 16.467 8.95398 16.7419 8.71962C17.5991 7.98867 18.7406 7.52783 19.8889 7.52783C20.6911 7.52783 21.542 7.75312 22.2748 8.13231C23.0021 8.50861 23.6838 9.07411 24.0635 9.81193C24.079 9.84211 24.0925 9.87332 24.1038 9.90532L26.3771 16.3414C26.6176 16.9398 26.75 17.5934 26.75 18.2778C26.75 21.1466 24.4244 23.4723 21.5556 23.4723C18.9414 23.4723 16.7783 21.5413 16.4149 19.0278H15.5851C15.2217 21.5413 13.0586 23.4723 10.4444 23.4723C7.57645 23.4723 5.25132 21.1479 5.25 18.2803M8.18176 13.6008L9.29183 10.4579C9.49314 10.0948 9.8859 9.73805 10.4145 9.46454C10.9571 9.18379 11.5732 9.02783 12.1111 9.02783C12.872 9.02783 13.6749 9.34083 14.2848 9.86098C14.8935 10.38 15.25 11.0496 15.25 11.7346V16.3022C14.4726 14.4132 12.6138 13.0834 10.4444 13.0834C9.63337 13.0834 8.86572 13.2693 8.18176 13.6008ZM14.0638 17.5333C14.113 17.7738 14.1389 18.0228 14.1389 18.2778C14.1389 20.3182 12.4848 21.9723 10.4444 21.9723C8.40406 21.9723 6.75 20.3182 6.75 18.2778C6.75 16.7534 7.67326 15.4446 8.99112 14.8802C9.01851 14.8685 9.04607 14.8571 9.07379 14.846C9.49773 14.6765 9.9603 14.5834 10.4444 14.5834C11.7196 14.5834 12.8439 15.2294 13.5078 16.2121C13.7735 16.6052 13.9654 17.0522 14.0638 17.5333ZM16.75 16.3022C16.9444 15.83 17.2063 15.3927 17.5238 15.0024C18.4762 13.8314 19.9285 13.0834 21.5556 13.0834C21.5782 13.0834 21.6007 13.0835 21.6233 13.0838C22.1063 13.09 22.5733 13.1621 23.0157 13.2914C23.2936 13.3727 23.5618 13.4765 23.8182 13.6008L22.7082 10.4579C22.5069 10.0948 22.1141 9.73805 21.5855 9.46454C21.0429 9.18379 20.4268 9.02783 19.8889 9.02783C19.128 9.02783 18.3251 9.34083 17.7152 9.86098C17.1065 10.38 16.75 11.0496 16.75 11.7346V16.3022ZM17.8611 18.2778C17.8611 18.2778 17.8611 18.2778 17.8611 18.2778C17.8611 20.3182 19.5152 21.9723 21.5556 21.9723C23.5952 21.9723 25.2488 20.3194 25.25 18.28C25.25 18.2793 25.25 18.2786 25.25 18.2778C25.25 18.2471 25.2496 18.2165 25.2489 18.186C25.248 18.1492 25.2466 18.1124 25.2446 18.0759C25.1662 16.6201 24.2449 15.3883 22.9602 14.8598C22.527 14.6816 22.0527 14.5834 21.5556 14.5834C20.2803 14.5834 19.156 15.2295 18.4921 16.2122C18.0937 16.8019 17.8611 17.5127 17.8611 18.2778Z" fill="white"/>
<path d="M5.62291 16.3415C5.38237 16.9399 5.25 17.5934 5.25 18.2778C5.25 18.2778 5.25 18.2778 5.25 18.2778" fill="white"/>
</svg>
