<svg width="22" height="16" viewBox="0 0 22 16" fill="none" xmlns="http://www.w3.org/2000/svg">
<path fill-rule="evenodd" clip-rule="evenodd" d="M18.1838 0.912489L11.0001 0.75L3.81639 0.912489C2.48523 0.942599 1.35813 1.90322 1.11744 3.21278C0.535722 6.37788 0.535722 9.6225 1.11744 12.7876C1.35813 14.0972 2.48523 15.0578 3.81639 15.0879L11.0001 15.2504L18.1838 15.0879C19.515 15.0578 20.6421 14.0972 20.8828 12.7876C21.4645 9.6225 21.4645 6.37788 20.8828 3.21278C20.6421 1.90322 19.515 0.942598 18.1838 0.912489ZM3.85031 2.41211L11.0001 2.25038L18.1499 2.41211C18.7702 2.42613 19.2953 2.87374 19.4075 3.48393C19.5608 4.31792 19.6712 5.15776 19.7389 6.00018H2.26133C2.32899 5.15776 2.43945 4.31792 2.59273 3.48393C2.70488 2.87374 3.23006 2.42613 3.85031 2.41211ZM2.18115 8.00018C2.18115 9.51186 2.31835 11.0235 2.59273 12.5165C2.70488 13.1266 3.23006 13.5742 3.85031 13.5883L11.0001 13.75L18.1499 13.5883C18.7702 13.5742 19.2953 13.1266 19.4075 12.5165C19.6819 11.0235 19.8191 9.51186 19.8191 8.00018H2.18115Z" fill="#0EB553"/>
</svg>
