<svg width="24" height="24" viewBox="0 0 24 24" fill="none" xmlns="http://www.w3.org/2000/svg">
<path d="M11.3092 5.42449C12.041 5.31142 12.7909 5.39781 13.4769 5.67499C14.163 5.95221 14.7602 6.41039 15.2006 7.00173C15.6412 7.5933 15.9071 8.2945 15.9663 9.02808C16.0255 9.76165 15.8754 10.496 15.5341 11.1491C15.1931 11.8021 14.6753 12.3473 14.0407 12.7267C13.8724 12.8272 13.6895 12.9215 13.5423 12.9975C13.5 13.0194 13.4607 13.0397 13.4254 13.0581C13.2453 13.1529 13.1282 13.2221 13.0415 13.2902C12.9633 13.3516 12.9296 13.3973 12.9102 13.4353C12.8915 13.4721 12.8613 13.5508 12.8613 13.7133V14.8703C12.8613 15.1762 12.6133 15.4242 12.3075 15.4242H11.569C11.2631 15.4242 11.0152 15.1762 11.0152 14.8703V13.7133C11.0152 13.3054 11.0949 12.9326 11.2643 12.599C11.4333 12.2665 11.6661 12.0228 11.9014 11.8381C12.1281 11.6601 12.3714 11.5265 12.5669 11.4238C12.6272 11.3922 12.6824 11.3637 12.7339 11.3371C12.8683 11.2677 12.979 11.2103 13.0933 11.142C13.4393 10.9353 13.7168 10.6411 13.8978 10.2945C14.0787 9.94802 14.1572 9.56134 14.1262 9.17651C14.095 8.79159 13.9554 8.42051 13.72 8.10447C13.4844 7.78819 13.1616 7.53877 12.7852 7.38668C12.4087 7.23452 11.9951 7.18657 11.5911 7.249C11.1871 7.31143 10.811 7.48131 10.5038 7.73723C10.3427 7.87142 10.2041 8.02638 10.0908 8.19659C9.92144 8.45125 9.61304 8.61436 9.32283 8.51771L8.62221 8.28433C8.33199 8.18768 8.17175 7.87165 8.30827 7.59793C8.55252 7.10836 8.89747 6.67268 9.32209 6.31887C9.88941 5.84619 10.5773 5.53758 11.3092 5.42449Z" fill="#64748B"/>
<path d="M11.1794 17.4242C11.1794 17.1693 11.3861 16.9626 11.641 16.9626H12.2388C12.4936 16.9626 12.7003 17.1693 12.7003 17.4242V18.022C12.7003 18.2768 12.4936 18.4835 12.2388 18.4835H11.641C11.3861 18.4835 11.1794 18.2768 11.1794 18.022V17.4242Z" fill="#64748B"/>
<path fill-rule="evenodd" clip-rule="evenodd" d="M12 0C5.37258 0 0 5.37258 0 12C0 18.6274 5.37258 24 12 24C18.6274 24 24 18.6274 24 12C24 5.37258 18.6274 0 12 0ZM1.84615 12C1.84615 6.39219 6.39219 1.84615 12 1.84615C17.6078 1.84615 22.1538 6.39219 22.1538 12C22.1538 17.6078 17.6078 22.1538 12 22.1538C6.39219 22.1538 1.84615 17.6078 1.84615 12Z" fill="#64748B"/>
</svg>
