<svg width="14" height="8" viewBox="0 0 14 8" fill="none" xmlns="http://www.w3.org/2000/svg">
<path d="M0.150951 7.66434L0.374727 7.88811C0.438663 7.9627 0.523911 8 0.630471 8C0.737031 8 0.827607 7.9627 0.902199 7.88811L7.00809 1.78222L13.114 7.88811C13.1886 7.9627 13.2765 8 13.3777 8C13.479 8 13.5669 7.9627 13.6415 7.88811L13.8652 7.66434C13.9398 7.6004 13.9771 7.51515 13.9771 7.40859C13.9771 7.30203 13.9398 7.21146 13.8652 7.13686L7.27982 0.551449C7.20523 0.476857 7.11465 0.43956 7.00809 0.43956C6.90153 0.43956 6.81096 0.476857 6.73636 0.551449L0.150951 7.13686C0.0763585 7.21146 0.0390625 7.30203 0.0390625 7.40859C0.0390625 7.51515 0.0763585 7.6004 0.150951 7.66434Z" fill="white" fill-opacity="0.5"/>
</svg>
