<svg width="105" height="105" viewBox="0 0 105 105" fill="none" xmlns="http://www.w3.org/2000/svg">
<path d="M38.8705 62.7849C52.904 62.7849 64.2805 51.4084 64.2805 37.3748C64.2805 23.3413 52.904 11.9648 38.8705 11.9648C24.8369 11.9648 13.4604 23.3413 13.4604 37.3748C13.4604 51.4084 24.8369 62.7849 38.8705 62.7849Z" fill="#F8881B"/>
<path d="M51.7726 27.679C53.0533 24.7277 54.9054 22.0591 57.2224 19.827L57.2378 19.8168C56.7614 19.32 56.2697 18.8487 55.7626 18.3929C50.874 23.1209 48.0004 29.5544 47.7417 36.3505H39.8948V11.9853C39.5517 11.97 39.2136 11.9648 38.8705 11.9648C38.5273 11.9648 38.1841 11.97 37.8461 11.9853V36.3505H29.9941C29.8758 33.0819 29.1461 29.8644 27.8429 26.8646C26.4617 23.6839 24.4691 20.8055 21.9783 18.3929C21.4661 18.8487 20.9744 19.32 20.5031 19.8168L20.5134 19.827C22.8303 22.0591 24.6825 24.7277 25.9631 27.679C27.1541 30.4221 27.8261 33.3623 27.9453 36.3505H13.4809C13.4656 36.6885 13.4604 37.0317 13.4604 37.3748C13.4604 37.718 13.4656 38.0612 13.4809 38.3992H27.9453C27.8261 41.3874 27.1541 44.3275 25.9631 47.0707C24.6812 50.0213 22.8292 52.6897 20.5134 54.9227L20.5031 54.9329C20.9744 55.4246 21.4661 55.9009 21.9783 56.3568C24.4691 53.9442 26.4617 51.0658 27.8429 47.8851C29.1461 44.8853 29.8758 41.6678 29.9941 38.3992H37.8461V62.7644C38.1841 62.7797 38.5273 62.7849 38.8705 62.7849C39.2136 62.7849 39.5517 62.7797 39.8948 62.7644V38.3992H47.7417C48.0004 45.1953 50.874 51.6288 55.7626 56.3568C56.2697 55.9009 56.7614 55.4246 57.2378 54.9329L57.2224 54.9227C54.9066 52.6897 53.0546 50.0213 51.7726 47.0707C50.5833 44.3273 49.9129 41.3871 49.7956 38.3992H64.26C64.2702 38.0612 64.2805 37.718 64.2805 37.3748C64.2805 37.0317 64.2702 36.6885 64.26 36.3505H49.7956C49.9129 33.3626 50.5833 30.4224 51.7726 27.679Z" fill="#323150"/>
<path opacity="0.2" d="M38.5119 54.9535C37.3886 57.4006 36.5946 59.9858 36.1506 62.6415C37.0542 62.7361 37.9619 62.7839 38.8704 62.7849C52.8994 62.7849 64.2804 51.4091 64.2804 37.3749V37.293C58.7887 37.6277 53.4909 39.4474 48.9525 42.5578C44.4142 45.6681 40.8056 49.9525 38.5119 54.9535Z" fill="black"/>
<path d="M66.1244 93.03C80.1579 93.03 91.5344 81.6535 91.5344 67.62C91.5344 53.5864 80.1579 42.21 66.1244 42.21C52.0908 42.21 40.7144 53.5864 40.7144 67.62C40.7144 81.6535 52.0908 93.03 66.1244 93.03Z" fill="#C8C2E9"/>
<path d="M69.254 60.7976L59.6913 62.7183L58.5645 72.4091L67.4305 76.4759L74.0379 69.3L69.254 60.7976Z" fill="#323150"/>
<path d="M69.0541 42.5788C68.9835 42.6559 68.939 42.7534 68.9271 42.8574C68.9151 42.9613 68.9363 43.0663 68.9875 43.1575L73.418 51.0351C73.4697 51.1254 73.5484 51.1972 73.643 51.2404C73.7377 51.2836 73.8435 51.296 73.9456 51.2758L82.8014 49.4934C82.9037 49.4735 82.9971 49.4216 83.068 49.3452C83.1389 49.2687 83.1836 49.1718 83.1958 49.0683C83.2059 48.9906 83.1967 48.9116 83.169 48.8384C83.1413 48.7651 83.096 48.6998 83.037 48.6483C81.1501 46.9657 79.0212 45.5758 76.7217 44.5251C74.4247 43.4706 71.984 42.7629 69.4792 42.4251C69.4013 42.4148 69.3219 42.4234 69.248 42.4502C69.174 42.4769 69.1075 42.521 69.0541 42.5788Z" fill="#323150"/>
<path d="M68.4191 63.6454C68.2709 63.6443 68.1244 63.613 67.9888 63.5532C67.7425 63.4396 67.5513 63.2328 67.4572 62.9783C67.363 62.7239 67.3737 62.4425 67.4869 62.1959L73.7715 48.4947C73.8849 48.2474 74.0919 48.0554 74.3469 47.9608C74.602 47.8662 74.8841 47.8767 75.1314 47.9902C75.3786 48.1036 75.5707 48.3106 75.6653 48.5656C75.7599 48.8206 75.7493 49.1028 75.6359 49.35L69.3512 63.0461C69.2697 63.2249 69.1385 63.3764 68.9732 63.4827C68.8079 63.589 68.6155 63.6454 68.4191 63.6454Z" fill="#323150"/>
<path d="M43.219 57.0995C43.2692 57.1899 43.3469 57.262 43.4408 57.3053C43.5348 57.3486 43.6401 57.3608 43.7414 57.3402L52.6024 55.5578C52.7047 55.5379 52.7981 55.486 52.869 55.4095C52.9398 55.3331 52.9846 55.2362 52.9968 55.1327L54.0417 46.159C54.0554 46.0554 54.0354 45.9502 53.9847 45.8589C53.9339 45.7676 53.8552 45.695 53.76 45.6519C53.688 45.6182 53.6089 45.6025 53.5295 45.6061C53.4501 45.6097 53.3728 45.6324 53.3041 45.6724C48.9208 48.2448 45.4028 52.0642 43.1985 56.6436C43.1653 56.7157 43.1498 56.7947 43.1533 56.8741C43.1569 56.9534 43.1794 57.0307 43.219 57.0995Z" fill="#323150"/>
<path d="M61.5762 65.7659C61.4356 65.7664 61.2964 65.7375 61.1676 65.681C61.0388 65.6246 60.9233 65.5418 60.8284 65.4381L51.2298 55.143C51.0444 54.944 50.9456 54.6794 50.9552 54.4076C50.9648 54.1358 51.082 53.8789 51.281 53.6935C51.4801 53.508 51.7446 53.4092 52.0164 53.4189C52.2882 53.4285 52.5451 53.5457 52.7306 53.7447L62.3291 64.0449C62.4647 64.1912 62.5547 64.3739 62.588 64.5705C62.6213 64.7672 62.5965 64.9693 62.5165 65.1521C62.4365 65.3348 62.305 65.4903 62.1379 65.5993C61.9709 65.7084 61.7756 65.7662 61.5762 65.7659Z" fill="#323150"/>
<path d="M49.0376 86.1564C49.1396 86.1358 49.2325 86.0836 49.3033 86.0073C49.374 85.9311 49.419 85.8345 49.432 85.7313L50.4769 76.7525C50.4889 76.6491 50.4683 76.5446 50.4177 76.4536C50.3672 76.3626 50.2893 76.2898 50.1952 76.2454L41.9796 72.4808C41.8852 72.4361 41.7791 72.423 41.6767 72.4432C41.5743 72.4635 41.4812 72.5162 41.411 72.5935C41.3577 72.6511 41.3191 72.7209 41.2986 72.7967C41.2781 72.8725 41.2763 72.9521 41.2932 73.0288C41.8316 75.4987 42.7362 77.8743 43.9771 80.0766C45.2183 82.2784 46.7767 84.2855 48.6022 86.0335C48.6601 86.0866 48.7297 86.1254 48.8053 86.1468C48.8809 86.1681 48.9605 86.1714 49.0376 86.1564Z" fill="#323150"/>
<path d="M45.8824 79.7231C45.6516 79.7229 45.4277 79.6447 45.2469 79.5013C45.0661 79.3579 44.939 79.1576 44.8863 78.9329C44.8335 78.7083 44.8582 78.4724 44.9562 78.2634C45.0543 78.0545 45.22 77.8849 45.4266 77.7819L62.6978 69.2129C62.9397 69.1018 63.2154 69.0892 63.4664 69.1778C63.7175 69.2665 63.9241 69.4493 64.0426 69.6877C64.1612 69.9261 64.1822 70.2012 64.1014 70.4549C64.0205 70.7085 63.8441 70.9207 63.6095 71.0465L46.3383 79.6156C46.1964 79.6855 46.0406 79.7222 45.8824 79.7231Z" fill="#323150"/>
<path d="M78.4734 89.5983C78.4863 89.4948 78.466 89.3899 78.4153 89.2988C78.3647 89.2076 78.2864 89.1349 78.1917 89.0912L69.9761 85.3214C69.881 85.279 69.7749 85.2675 69.6728 85.2887C69.5708 85.3098 69.478 85.3625 69.4076 85.4392L63.2868 92.0875C63.2152 92.1631 63.17 92.2599 63.158 92.3633C63.146 92.4667 63.1678 92.5712 63.2203 92.6612C63.258 92.7294 63.3118 92.7874 63.3769 92.8302C63.442 92.873 63.5166 92.8994 63.5942 92.9071C68.6538 93.4089 73.748 92.3868 78.2225 89.9722C78.2913 89.9347 78.3501 89.8811 78.3938 89.816C78.4375 89.7509 78.4648 89.6762 78.4734 89.5983Z" fill="#323150"/>
<path d="M70.0272 87.6776C69.8 87.6771 69.5794 87.6015 69.3997 87.4625C69.2199 87.3236 69.0912 87.129 69.0336 86.9093L66.0526 75.221C66.0008 74.9637 66.0498 74.6963 66.1894 74.474C66.3291 74.2517 66.5487 74.0915 66.803 74.0265C67.0573 73.9614 67.3269 73.9965 67.5561 74.1244C67.7853 74.2523 67.9567 74.4633 68.0348 74.7139L71.0209 86.4022C71.0878 86.665 71.0477 86.9437 70.9094 87.177C70.7711 87.4103 70.546 87.5793 70.2833 87.6468C70.1994 87.6669 70.1135 87.6772 70.0272 87.6776Z" fill="#323150"/>
<path d="M90.8428 62.6671C90.7485 62.6224 90.6423 62.6092 90.5399 62.6295C90.4376 62.6498 90.3444 62.7025 90.2743 62.7797L84.1535 69.428C84.0826 69.504 84.0379 69.6007 84.026 69.7039C84.014 69.8072 84.0353 69.9115 84.087 70.0017L88.5174 77.8793C88.5678 77.9711 88.6461 78.0444 88.7409 78.0886C88.8358 78.1328 88.9424 78.1456 89.045 78.1251C89.122 78.1078 89.194 78.0729 89.2553 78.0231C89.3166 77.9734 89.3656 77.9101 89.3984 77.8383C91.4326 73.1819 92.0335 68.025 91.1245 63.0256C91.11 62.9475 91.0768 62.8741 91.0277 62.8117C90.9787 62.7493 90.9152 62.6996 90.8428 62.6671Z" fill="#323150"/>
<path d="M86.3817 70.816H86.3407L69.6073 70.1502C69.3356 70.1393 69.0794 70.021 68.8949 69.8212C68.7105 69.6214 68.613 69.3565 68.6239 69.0848C68.6347 68.8131 68.7531 68.5569 68.9529 68.3725C69.1527 68.188 69.4175 68.0905 69.6892 68.1014L86.4226 68.7673C86.6943 68.7727 86.9527 68.8858 87.141 69.0818C87.3293 69.2777 87.432 69.5405 87.4265 69.8121C87.4211 70.0838 87.308 70.3422 87.112 70.5305C86.9161 70.7188 86.6534 70.8215 86.3817 70.816Z" fill="#323150"/>
<path opacity="0.2" d="M59.6758 85.7159C46.9221 79.8666 41.3239 64.7825 47.1782 52.0237C47.6555 50.9846 48.2013 49.9785 48.8122 49.012C46.3775 51.2768 44.4126 53.9988 43.0295 57.0227C37.1802 69.7764 42.7734 84.8605 55.527 90.7149C67.2307 96.0827 80.8909 91.8161 87.5853 81.229C80.2763 88.0259 69.3102 90.1361 59.6758 85.7159Z" fill="black"/>
<path opacity="0.2" d="M76.7216 44.5252C72.7568 42.6962 68.3855 41.9267 64.0345 42.292C62.1138 46.3076 61.9191 51.4654 63.9218 56.7461C67.8145 67.0259 78.545 73.8688 87.8926 72.03C89.081 71.8004 90.2357 71.4218 91.3294 70.9032C92.7328 60.1522 87.0935 49.2834 76.7216 44.5252Z" fill="white"/>
<path opacity="0.1" d="M26.4651 15.1917C29.9122 25.1385 39.3622 32.2837 50.4819 32.2837C54.8237 32.2898 59.0941 31.1785 62.8822 29.0568C59.4402 19.1049 49.9902 11.9649 38.8705 11.9649C34.5269 11.9581 30.2548 13.0694 26.4651 15.1917Z" fill="white"/>
</svg>
