<svg width="82" height="74" viewBox="0 0 82 74" fill="none" xmlns="http://www.w3.org/2000/svg">
<path d="M41 72.9C39.3 72.9 38 71.6 38 69.9V3C38 1.4 39.3 0 41 0H41.1C42.7 0 44.1 1.3 44.1 3V69.9C43.9 71.6 42.6 72.9 41 72.9Z" fill="#C45527"/>
<path d="M47.3 23.7H32.3C28.2 23.7 24.8 20.3 24.8 16.2V16C24.8 11.9 28.2 8.5 32.3 8.5H47.3C51.4 8.5 54.8 11.9 54.8 16V16.2C54.8 20.4 51.4 23.7 47.3 23.7Z" fill="#7ACCCE"/>
<path d="M80.1 73.3H1.5C0.7 73.3 0 72.6 0 71.8V70.4C0 69.6 0.7 68.9 1.5 68.9H80.1C80.9 68.9 81.6 69.6 81.6 70.4V71.8C81.6 72.7 80.9 73.3 80.1 73.3Z" fill="#C45527"/>
<path d="M66.8999 69.1H12.7C8.59995 69.1 5.19995 65.7 5.19995 61.6V61.5C5.19995 57.4 8.59995 54 12.7 54H66.8999C70.9999 54 74.3999 57.4 74.3999 61.5V61.6C74.3999 65.7 70.9999 69.1 66.8999 69.1Z" fill="#F7B2B8"/>
<path d="M58.6 54H21C16.9 54 13.5 50.6 13.5 46.5V46.4C13.5 42.3 16.9 38.9 21 38.9H58.6C62.7 38.9 66.1 42.3 66.1 46.4V46.5C66.1 50.6 62.7 54 58.6 54Z" fill="#F3D04C"/>
<path d="M52.2001 38.8999H27.3C23.2 38.8999 19.8 35.5 19.8 31.4V31.2C19.8 27.1 23.2 23.7 27.3 23.7H52.2001C56.3 23.7 59.7001 27.1 59.7001 31.2V31.4C59.7001 35.5 56.3 38.8999 52.2001 38.8999Z" fill="#F48053"/>
<path d="M31.5999 20.5C31.5999 20.2 31.5 19.8 31.2 19.6C30.4 18.7 29.8999 17.6 29.8999 16.3V16.2C29.8999 14.9 30.4 13.8 31.2 12.9C31.4 12.6 31.5999 12.3 31.5999 12C31.5999 10.7 30 10.1 29.2 11.1C27.9 12.5 27.2 14.3 27.2 16.3V16.4C27.2 18.4 28 20.2 29.2 21.6C30 22.4 31.5999 21.8 31.5999 20.5Z" fill="#AAD6D6"/>
<path d="M27.0999 35.5C27.0999 35.2 27 34.8 26.7 34.6C25.9 33.7 25.3999 32.5 25.3999 31.3V31.2C25.3999 29.9 25.9 28.8 26.7 27.9C26.9 27.6 27.0999 27.3 27.0999 27C27.0999 25.7 25.5 25.1 24.7 26.1C23.4 27.5 22.7 29.3 22.7 31.3V31.4C22.7 33.4 23.5 35.2 24.7 36.6C25.5 37.4 27.0999 36.8 27.0999 35.5Z" fill="#F58D63"/>
<path d="M21.0001 50.6C21.0001 50.3 20.9001 49.9 20.6001 49.7C19.8001 48.8 19.3001 47.6 19.3001 46.4V46.3C19.3001 45 19.8001 43.8 20.6001 43C20.8001 42.7 21.0001 42.4 21.0001 42.1C21.0001 40.8 19.4001 40.2 18.6001 41.2C17.3001 42.6 16.6001 44.4 16.6001 46.4V46.5C16.6001 48.5 17.4001 50.3 18.6001 51.7C19.4001 52.5 21.0001 51.9 21.0001 50.6Z" fill="#F5D779"/>
<path d="M12.5001 65.9001C12.5001 65.6001 12.4001 65.2001 12.2001 65.0001C11.4001 64.1001 10.9001 63.0001 10.9001 61.8001V61.7001C10.9001 60.5001 11.4001 59.3001 12.2001 58.5001C12.4001 58.2001 12.5001 57.9001 12.5001 57.6001C12.5001 56.4001 11.0001 55.8001 10.1001 56.7001C8.9001 58.0001 8.1001 59.8001 8.1001 61.8001V61.9001C8.1001 63.9001 8.8001 65.6001 10.1001 67.0001C10.9001 67.8001 12.5001 67.2001 12.5001 65.9001Z" fill="#F9C7C9"/>
<path d="M80.1001 68.9H68.5001C68.0001 69 67.4001 69.1 66.8001 69.1H43.9001V69.9C43.9001 71.5 42.6001 72.9 40.9001 72.9H40.8001C40.7001 72.9 40.7001 72.9 40.6001 72.9V73.3H80.0001C80.8001 73.3 81.5001 72.6 81.5001 71.8V70.4C81.6001 69.6 80.9001 68.9 80.1001 68.9Z" fill="#B84E2A"/>
<path d="M40.9999 0.0999756C40.8999 0.0999756 40.7999 0.0999756 40.7999 0.0999756V8.59998H43.9999V3.09998C43.8999 1.39998 42.5999 0.0999756 40.9999 0.0999756ZM43.8999 69.1H40.7V72.9C40.8 72.9 40.7999 72.9 40.8999 72.9H40.9999C42.5999 72.9 43.9999 71.6 43.9999 69.9V69.1H43.8999Z" fill="#B84E2A"/>
<path d="M66.8999 53.9H59.3999C59.1999 53.9 58.9 53.9 58.7 53.9H40.7V69H66.7999C67.4 69 67.8999 68.9 68.4999 68.8C71.7999 68 74.2999 65.1 74.2999 61.5V61.4C74.3999 57.3 70.9999 53.9 66.8999 53.9Z" fill="#F496A7"/>
<path d="M58.6 38.8H52.9999C52.7999 38.8 52.4999 38.8 52.2999 38.8H40.7V53.9H58.4999C58.6999 53.9 59 53.9 59.2 53.9C63 53.5 65.9999 50.3 65.9999 46.4V46.3C66.0999 42.2 62.7 38.8 58.6 38.8Z" fill="#DFB747"/>
<path d="M52.2 23.7H47.9999C47.7999 23.7 47.4999 23.7 47.2999 23.7H40.7V38.7999H52.2C52.4 38.7999 52.6999 38.7999 52.8999 38.7999C56.6999 38.4 59.7 35.1999 59.7 31.2999V31.1C59.7 27.1 56.3 23.7 52.2 23.7Z" fill="#E27650"/>
<path d="M47.2999 8.59998H40.7V23.7H47.2999C47.4999 23.7 47.7999 23.7 47.9999 23.7C51.7999 23.3 54.7999 20.1 54.7999 16.2V16C54.7999 12 51.4 8.59998 47.2999 8.59998Z" fill="#71B8BC"/>
</svg>
