<svg width="32" height="32" viewBox="0 0 32 32" fill="none" xmlns="http://www.w3.org/2000/svg">
<path d="M16 32C7.16318 32 0 24.8368 0 16C0 7.16318 7.16318 0 16 0C24.8368 0 32 7.16318 32 16C32 24.8368 24.8368 32 16 32ZM16 1.74059C8.16736 1.74059 1.74059 8.16736 1.74059 16C1.74059 23.8326 8.16736 30.2594 16 30.2594C23.8326 30.2594 30.2594 23.8326 30.2594 16C30.2594 8.16736 23.8326 1.74059 16 1.74059Z" fill="#0EB553"/>
<path d="M7.49792 15.0628H24.5021V16.9372H7.49792V15.0628Z" fill="#0EB553"/>
<path d="M15.0626 7.49789H16.9371V24.5021H15.0626V7.49789Z" fill="#0EB553"/>
</svg>
