<svg width="18" height="19" viewBox="0 0 18 19" fill="none" xmlns="http://www.w3.org/2000/svg">
<path d="M5.25 4.99902C5.25 4.58481 5.58579 4.24902 6 4.24902H13C13.4142 4.24902 13.75 4.58481 13.75 4.99902C13.75 5.41324 13.4142 5.74902 13 5.74902H6C5.58579 5.74902 5.25 5.41324 5.25 4.99902Z" fill="#0EB553"/>
<path d="M6 7.24902C5.58579 7.24902 5.25 7.58481 5.25 7.99902C5.25 8.41324 5.58579 8.74902 6 8.74902H11C11.4142 8.74902 11.75 8.41324 11.75 7.99902C11.75 7.58481 11.4142 7.24902 11 7.24902H6Z" fill="#0EB553"/>
<path fill-rule="evenodd" clip-rule="evenodd" d="M5.5 0.249023C2.87665 0.249023 0.75 2.37567 0.75 4.99902V14.999C0.75 17.0701 2.42893 18.749 4.5 18.749H15.5C16.4665 18.749 17.25 17.9655 17.25 16.999V1.99902C17.25 1.03253 16.4665 0.249023 15.5 0.249023H5.5ZM15.75 11.249V1.99902C15.75 1.86095 15.6381 1.74902 15.5 1.74902H5.5C3.70507 1.74902 2.25 3.2041 2.25 4.99902V11.9987C2.87675 11.528 3.6558 11.249 4.5 11.249H15.75ZM15.75 12.749H4.5C3.25736 12.749 2.25 13.7564 2.25 14.999C2.25 16.2417 3.25736 17.249 4.5 17.249H15.5C15.6381 17.249 15.75 17.1371 15.75 16.999V12.749Z" fill="#0EB553"/>
</svg>
