<svg width="86" height="86" viewBox="0 0 86 86" fill="none" xmlns="http://www.w3.org/2000/svg">
<path fill-rule="evenodd" clip-rule="evenodd" d="M24.0125 44.1824H34.7559C34.7559 40.0571 37.7995 37.6786 39.459 36.019H30.2138L24.0125 44.1824Z" fill="#B6B6B6"/>
<path fill-rule="evenodd" clip-rule="evenodd" d="M26.512 44.1824L30.2138 39.3113H36.3883C37.376 37.9273 38.599 36.879 39.459 36.019H30.2138L24.0125 44.1824H26.512Z" fill="#888888"/>
<path fill-rule="evenodd" clip-rule="evenodd" d="M10.9151 30.6632L2.09155 74.5073H33.6422C33.6422 74.5073 34.2064 71.5466 34.822 68.4136C35.1811 66.6309 34.7192 64.7815 33.5906 63.3748C32.4619 61.9681 30.7179 61.1524 28.9223 61.1524H25.1774L31.3336 30.6632" fill="#F43131"/>
<path fill-rule="evenodd" clip-rule="evenodd" d="M25.1546 61.1541L29.152 41.3203H21.0495L18.5835 53.5686C18.2072 55.4297 18.6911 57.3578 19.8937 58.8293C21.0964 60.3007 22.8903 61.1541 24.7917 61.1541C25.0269 61.1541 25.1546 61.1541 25.1546 61.1541Z" fill="#666666"/>
<path fill-rule="evenodd" clip-rule="evenodd" d="M34.5477 65.0643C33.9967 67.8123 31.5781 69.7876 28.7764 69.7876C20.1697 69.7876 3.0368 69.7876 3.0368 69.7876L2.08936 74.5042H33.6002C33.6002 74.5042 34.1917 71.5479 34.8232 68.4103C35.0517 67.2815 34.9508 66.1192 34.5477 65.0643Z" fill="#B72525"/>
<path fill-rule="evenodd" clip-rule="evenodd" d="M6.25511 74.5042L15.0833 30.6643H10.9179L2.08936 74.5042H6.25511Z" fill="#F76565"/>
<path fill-rule="evenodd" clip-rule="evenodd" d="M30.2563 35.9668L31.334 30.6632H10.9154L8.81226 41.3217H21.0736L22.1507 35.9668H30.2563Z" fill="#B72525"/>
<path fill-rule="evenodd" clip-rule="evenodd" d="M25.6988 35.0651H22.3057L18.5835 53.5685C18.2072 55.4296 18.6911 57.3578 19.8937 58.8292C21.0964 60.3006 22.8903 61.154 24.7917 61.154C25.0269 61.154 25.1546 61.154 25.1546 61.154L25.2956 60.4552C24.5297 60.0656 23.8444 59.5145 23.28 58.8292C22.0774 57.3578 21.6002 55.4296 21.9697 53.5685L25.6988 35.0651Z" fill="#4C4C4C"/>
<path fill-rule="evenodd" clip-rule="evenodd" d="M62.5878 25.0938L83.9043 25.0938C84.66 25.0938 85.2592 24.4915 85.2592 23.7497C85.2592 23.0084 84.66 22.4061 83.9043 22.4061L62.5878 22.4061C61.8321 22.4061 61.2329 23.0084 61.2329 23.7497C61.2329 24.4915 61.8321 25.0938 62.5878 25.0938Z" fill="#C8C8C8"/>
<path fill-rule="evenodd" clip-rule="evenodd" d="M61.2344 23.8112C61.268 24.5233 61.8592 25.0944 62.5781 25.0944H83.9036C84.6292 25.0944 85.2137 24.5233 85.2473 23.8112H61.2344Z" fill="#888888"/>
<path fill-rule="evenodd" clip-rule="evenodd" d="M52.2246 30.5568C52.2246 30.5568 56.6185 30.5568 58.5736 30.5568C60.7841 30.5568 62.578 28.7629 62.578 26.5524C62.578 24.7854 62.578 22.7092 62.578 20.9422C62.578 18.7317 60.7841 16.9379 58.5736 16.9379H52.2246V30.5568Z" fill="#B6B6B6"/>
<path fill-rule="evenodd" clip-rule="evenodd" d="M52.2246 26.9218V30.5568C52.2246 30.5568 56.6185 30.5568 58.5736 30.5568C60.7841 30.5568 62.578 28.7629 62.578 26.5524V22.9175C62.578 25.1347 60.7841 26.9218 58.5736 26.9218H52.2246Z" fill="#888888"/>
<path fill-rule="evenodd" clip-rule="evenodd" d="M52.2246 20.0149H58.5736C60.7841 20.0149 62.578 21.809 62.578 24.0195V26.5524C62.578 24.7854 62.578 22.7092 62.578 20.9422C62.578 18.7317 60.7841 16.9379 58.5736 16.9379H52.2246V20.0149Z" fill="#C8C8C8"/>
<path fill-rule="evenodd" clip-rule="evenodd" d="M8.84216 11.4932C7.0466 11.4932 5.35374 12.2011 4.0712 13.4611C2.78865 14.7206 2.12183 16.4294 2.12183 18.2111C2.12183 21.6571 2.12183 25.8428 2.12183 29.2887C2.12183 31.0704 2.78865 32.7788 4.0712 34.0388C5.35374 35.2987 7.0466 36.0062 8.84216 36.0062C19.2564 36.0062 39.1616 36.0062 48.9603 36.0062C52.0897 36.0062 54.7062 33.4355 54.7062 30.264C54.7062 26.3399 54.7062 21.16 54.7062 17.2354C54.7062 14.0644 52.0897 11.4932 48.9603 11.4932H8.84216Z" fill="#F43131"/>
<path fill-rule="evenodd" clip-rule="evenodd" d="M2.08936 24.2882V29.2869C2.08936 31.0674 2.79494 32.774 4.05807 34.0371C5.31447 35.3002 7.02764 36.0057 8.8081 36.0057H48.9326C52.1039 36.0057 54.677 33.4324 54.677 30.2611V25.2624C54.677 28.4336 52.1039 31.007 48.9326 31.007H8.8081C7.02764 31.007 5.31447 30.2948 4.05807 29.0384C2.79494 27.7753 2.08936 26.0687 2.08936 24.2882Z" fill="#B72525"/>
<path fill-rule="evenodd" clip-rule="evenodd" d="M2.08936 22.9849C2.08936 21.1977 2.79494 19.4911 4.05807 18.2347C5.31447 16.9715 7.02764 16.2661 8.8081 16.2661H48.9326C52.1039 16.2661 54.677 18.8327 54.677 22.004V17.2336C54.677 14.0623 52.1039 11.489 48.9326 11.489H8.8081C7.02764 11.489 5.31447 12.2013 4.05807 13.4577C2.79494 14.7209 2.08936 16.4273 2.08936 18.2078V22.9849Z" fill="#F76565"/>
<path fill-rule="evenodd" clip-rule="evenodd" d="M43.6991 27.3311H49.1503C49.89 27.3311 50.4964 26.7288 50.4964 25.987C50.4964 25.2457 49.89 24.6434 49.1503 24.6434H43.6991C42.9527 24.6434 42.353 25.2457 42.353 25.987C42.353 26.7288 42.9527 27.3311 43.6991 27.3311Z" fill="black" fill-opacity="0.25"/>
<path fill-rule="evenodd" clip-rule="evenodd" d="M43.6991 32.1223H49.1503C49.89 32.1223 50.4964 31.52 50.4964 30.7782C50.4964 30.0368 49.89 29.4346 49.1503 29.4346H43.6991C42.9527 29.4346 42.353 30.0368 42.353 30.7782C42.353 31.52 42.9527 32.1223 43.6991 32.1223Z" fill="black" fill-opacity="0.25"/>
<path fill-rule="evenodd" clip-rule="evenodd" d="M43.6991 17.7496H49.1503C49.89 17.7496 50.4964 17.1473 50.4964 16.4055C50.4964 15.6642 49.89 15.0619 49.1503 15.0619H43.6991C42.9527 15.0619 42.353 15.6642 42.353 16.4055C42.353 17.1473 42.9527 17.7496 43.6991 17.7496Z" fill="black" fill-opacity="0.25"/>
<path fill-rule="evenodd" clip-rule="evenodd" d="M43.6991 22.5407H49.1503C49.89 22.5407 50.4964 21.9384 50.4964 21.1966C50.4964 20.4553 49.89 19.853 49.1503 19.853H43.6991C42.9527 19.853 42.353 20.4553 42.353 21.1966C42.353 21.9384 42.9527 22.5407 43.6991 22.5407Z" fill="black" fill-opacity="0.25"/>
<path fill-rule="evenodd" clip-rule="evenodd" d="M30.4717 20.7325C30.4717 19.8074 29.7159 19.0547 28.809 19.0547C25.6951 19.0547 19.1047 19.0547 16.021 19.0547C15.0839 19.0547 14.3279 19.8074 14.3279 20.7325C14.3279 21.8511 14.3279 23.3173 14.3279 24.4359C14.3279 25.361 15.0839 26.1137 16.021 26.1137C19.1047 26.1137 25.6951 26.1137 28.809 26.1137C29.7159 26.1137 30.4717 25.361 30.4717 24.4359C30.4717 23.3173 30.4717 21.8511 30.4717 20.7325Z" fill="#F2AF0D"/>
<path fill-rule="evenodd" clip-rule="evenodd" d="M30.4717 22.6432H14.3279V24.4359C14.3279 25.361 15.0839 26.1138 16.021 26.1138C19.1047 26.1138 25.6951 26.1138 28.809 26.1138C29.7159 26.1138 30.4717 25.361 30.4717 24.4359V22.6432Z" fill="#F25E0D"/>
<path fill-rule="evenodd" clip-rule="evenodd" d="M29.1788 41.3216H21.0732L22.1504 35.9667H30.256L29.1788 41.3216Z" fill="#393939"/>
</svg>
